<svg width="1440" height="64" viewBox="0 0 1440 64" fill="none" xmlns="http://www.w3.org/2000/svg">
<path d="M151 26.0126C150.713 26.4417 150.388 26.8418 150.026 27.213C149.664 27.5842 149.271 27.9231 148.847 28.2296C148.854 28.3249 148.859 28.4186 148.862 28.5105C148.865 28.6025 148.867 28.6961 148.867 28.7915C148.867 29.6496 148.775 30.4976 148.59 31.3353C148.406 32.1731 148.139 32.9836 147.791 33.7668C147.285 34.9042 146.652 35.9208 145.894 36.8164C145.135 37.712 144.275 38.4697 143.315 39.0895C142.354 39.7093 141.307 40.1827 140.172 40.5096C139.037 40.8365 137.848 41 136.604 41C135.428 41 134.281 40.8382 133.163 40.5147C132.046 40.1912 130.991 39.7093 130 39.0691C130.335 39.11 130.677 39.1304 131.025 39.1304C132.003 39.1304 132.948 38.9738 133.861 38.6605C134.773 38.3471 135.612 37.8908 136.378 37.2915C135.92 37.2846 135.479 37.208 135.055 37.0616C134.631 36.9152 134.243 36.7108 133.891 36.4486C133.539 36.1864 133.232 35.8748 132.968 35.5138C132.705 35.1528 132.502 34.7544 132.358 34.3185C132.495 34.3389 132.63 34.356 132.763 34.3696C132.897 34.3832 133.032 34.39 133.168 34.39C133.551 34.39 133.927 34.3389 134.296 34.2368C133.791 34.1346 133.327 33.9541 132.907 33.6953C132.487 33.4365 132.123 33.1215 131.815 32.7503C131.507 32.3791 131.268 31.9602 131.097 31.4937C130.926 31.0271 130.841 30.5385 130.841 30.0276V29.9766C131.442 30.3171 132.095 30.4976 132.799 30.518C132.499 30.3137 132.23 30.0804 131.994 29.8182C131.759 29.556 131.559 29.2716 131.395 28.9651C131.23 28.6587 131.104 28.3351 131.015 27.9946C130.926 27.654 130.882 27.3033 130.882 26.9423C130.882 26.5609 130.93 26.188 131.025 25.8236C131.121 25.4592 131.268 25.1136 131.466 24.7867C132.013 25.4609 132.622 26.0654 133.291 26.6001C133.961 27.1347 134.674 27.5928 135.429 27.9742C136.185 28.3556 136.976 28.6569 137.803 28.8783C138.63 29.0997 139.478 29.2308 140.346 29.2716C140.305 29.115 140.276 28.9532 140.259 28.7864C140.242 28.6195 140.233 28.4543 140.233 28.2909C140.233 27.6983 140.346 27.1415 140.572 26.6205C140.797 26.0995 141.105 25.6448 141.495 25.2566C141.884 24.8684 142.341 24.5619 142.864 24.3371C143.386 24.1124 143.945 24 144.54 24C145.142 24 145.714 24.1175 146.258 24.3525C146.801 24.5874 147.278 24.9229 147.688 25.3588C148.173 25.2634 148.643 25.1289 149.098 24.9552C149.552 24.7815 149.992 24.5687 150.416 24.3167C150.258 24.8139 150.017 25.2668 149.693 25.6755C149.368 26.0841 148.98 26.4213 148.529 26.6869C149.39 26.5847 150.214 26.36 151 26.0126L151 26.0126Z" fill="#6E7491"/>
<path fill-rule="evenodd" clip-rule="evenodd" d="M173.25 27.4545C173.25 24.0403 176.04 21.25 179.455 21.25H188.545C191.96 21.25 194.75 24.0403 194.75 27.4545V36.5455C194.75 39.9597 191.96 42.75 188.545 42.75H179.455C176.04 42.75 173.25 39.9597 173.25 36.5455V27.4545ZM179.455 22.75C176.869 22.75 174.75 24.8688 174.75 27.4545V36.5455C174.75 39.1312 176.869 41.25 179.455 41.25H188.545C191.131 41.25 193.25 39.1312 193.25 36.5455V27.4545C193.25 24.8688 191.131 22.75 188.545 22.75H179.455ZM184 35.5C185.933 35.5 187.5 33.933 187.5 32C187.5 30.067 185.933 28.5 184 28.5C182.067 28.5 180.5 30.067 180.5 32C180.5 33.933 182.067 35.5 184 35.5ZM184 37C186.761 37 189 34.7614 189 32C189 29.2386 186.761 27 184 27C181.239 27 179 29.2386 179 32C179 34.7614 181.239 37 184 37ZM189 27C189.552 27 190 26.5523 190 26C190 25.4477 189.552 25 189 25C188.448 25 188 25.4477 188 26C188 26.5523 188.448 27 189 27Z" fill="#6E7491"/>
<path d="M236.052 23H219.948C219.702 23.0166 219.47 23.1218 219.296 23.296C219.122 23.4703 219.017 23.7018 219 23.9476V40.0524C219.001 40.3033 219.102 40.5435 219.279 40.7209C219.457 40.8983 219.697 40.9986 219.948 41H228.569V33.9895H226.294V31.3372H228.663V29.3476C228.612 28.8705 228.667 28.388 228.823 27.9345C228.98 27.4809 229.235 27.0676 229.57 26.7238C229.904 26.38 230.311 26.1143 230.76 25.9456C231.209 25.7769 231.69 25.7093 232.169 25.7476C233.116 25.7476 233.969 25.8419 234.252 25.8419V28.3058H232.831C231.694 28.3058 231.505 28.8744 231.505 29.6325V31.3372H234.157L233.778 34.0848H231.41V41H236.052C236.303 40.9986 236.543 40.8983 236.721 40.7209C236.898 40.5435 236.999 40.3033 237 40.0524V23.9476C236.983 23.7018 236.878 23.4703 236.704 23.296C236.53 23.1218 236.298 23.0166 236.052 23V23Z" fill="#6E7491"/>
<path d="M1098.37 37.662C1097.45 37.662 1096.59 37.5 1095.8 37.176C1095.01 36.84 1094.32 36.378 1093.73 35.79C1093.14 35.19 1092.68 34.5 1092.34 33.72C1092.02 32.928 1091.86 32.07 1091.86 31.146C1091.86 30.222 1092.02 29.37 1092.34 28.59C1092.68 27.798 1093.14 27.108 1093.73 26.52C1094.32 25.932 1095.01 25.476 1095.8 25.152C1096.59 24.816 1097.45 24.648 1098.37 24.648C1099.3 24.648 1100.15 24.816 1100.93 25.152C1101.72 25.476 1102.41 25.932 1103 26.52C1103.59 27.108 1104.04 27.798 1104.37 28.59C1104.7 29.37 1104.87 30.222 1104.87 31.146C1104.87 32.07 1104.7 32.928 1104.37 33.72C1104.04 34.5 1103.59 35.19 1103 35.79C1102.41 36.378 1101.72 36.84 1100.93 37.176C1100.15 37.5 1099.3 37.662 1098.37 37.662ZM1098.37 36.87C1099.18 36.87 1099.92 36.726 1100.6 36.438C1101.3 36.15 1101.9 35.748 1102.4 35.232C1102.92 34.704 1103.32 34.098 1103.61 33.414C1103.9 32.718 1104.04 31.962 1104.04 31.146C1104.04 30.33 1103.9 29.58 1103.61 28.896C1103.32 28.2 1102.92 27.594 1102.4 27.078C1101.9 26.562 1101.3 26.16 1100.6 25.872C1099.92 25.584 1099.18 25.44 1098.37 25.44C1097.57 25.44 1096.82 25.584 1096.12 25.872C1095.43 26.16 1094.82 26.562 1094.3 27.078C1093.8 27.594 1093.4 28.2 1093.12 28.896C1092.83 29.58 1092.68 30.33 1092.68 31.146C1092.68 31.962 1092.83 32.718 1093.12 33.414C1093.4 34.098 1093.8 34.704 1094.3 35.232C1094.82 35.748 1095.43 36.15 1096.12 36.438C1096.82 36.726 1097.57 36.87 1098.37 36.87ZM1098.61 35.034C1097.45 35.034 1096.54 34.68 1095.87 33.972C1095.2 33.252 1094.86 32.298 1094.86 31.11C1094.86 29.922 1095.2 28.986 1095.87 28.302C1096.54 27.618 1097.45 27.276 1098.61 27.276C1099.09 27.276 1099.55 27.36 1100.01 27.528C1100.48 27.696 1100.87 27.93 1101.18 28.23L1100.75 29.166C1100.42 28.89 1100.08 28.686 1099.72 28.554C1099.36 28.422 1099.01 28.356 1098.66 28.356C1097.88 28.356 1097.27 28.596 1096.82 29.076C1096.38 29.556 1096.16 30.234 1096.16 31.11C1096.16 31.986 1096.38 32.682 1096.82 33.198C1097.27 33.702 1097.88 33.954 1098.66 33.954C1099.01 33.954 1099.36 33.888 1099.72 33.756C1100.08 33.624 1100.42 33.414 1100.75 33.126L1101.18 34.08C1100.87 34.368 1100.48 34.602 1100.01 34.782C1099.54 34.95 1099.07 35.034 1098.61 35.034ZM1111.95 37.5V36.384L1116.29 31.704C1116.9 31.032 1117.34 30.42 1117.6 29.868C1117.88 29.316 1118.01 28.752 1118.01 28.176C1118.01 26.7 1117.16 25.962 1115.44 25.962C1114.16 25.962 1113.02 26.442 1112.04 27.402L1111.48 26.25C1111.95 25.77 1112.54 25.386 1113.26 25.098C1113.99 24.798 1114.76 24.648 1115.57 24.648C1116.84 24.648 1117.81 24.948 1118.48 25.548C1119.17 26.136 1119.51 26.976 1119.51 28.068C1119.51 28.824 1119.32 29.568 1118.95 30.3C1118.58 31.02 1118.01 31.788 1117.24 32.604L1113.84 36.24H1120.03V37.5H1111.95ZM1126.52 37.662C1125.07 37.662 1123.97 37.104 1123.21 35.988C1122.45 34.872 1122.08 33.258 1122.08 31.146C1122.08 29.022 1122.45 27.408 1123.21 26.304C1123.97 25.2 1125.07 24.648 1126.52 24.648C1127.99 24.648 1129.09 25.2 1129.83 26.304C1130.59 27.396 1130.97 29.004 1130.97 31.128C1130.97 33.252 1130.58 34.872 1129.82 35.988C1129.06 37.104 1127.96 37.662 1126.52 37.662ZM1126.52 36.384C1127.53 36.384 1128.27 35.958 1128.75 35.106C1129.25 34.254 1129.49 32.928 1129.49 31.128C1129.49 29.328 1129.25 28.014 1128.77 27.186C1128.29 26.346 1127.54 25.926 1126.52 25.926C1125.51 25.926 1124.76 26.346 1124.27 27.186C1123.79 28.026 1123.55 29.34 1123.55 31.128C1123.55 32.928 1123.79 34.254 1124.27 35.106C1124.76 35.958 1125.51 36.384 1126.52 36.384ZM1133.53 37.5V36.384L1137.87 31.704C1138.48 31.032 1138.92 30.42 1139.19 29.868C1139.46 29.316 1139.6 28.752 1139.6 28.176C1139.6 26.7 1138.74 25.962 1137.03 25.962C1135.74 25.962 1134.61 26.442 1133.62 27.402L1133.07 26.25C1133.53 25.77 1134.13 25.386 1134.85 25.098C1135.58 24.798 1136.35 24.648 1137.15 24.648C1138.42 24.648 1139.4 24.948 1140.07 25.548C1140.75 26.136 1141.09 26.976 1141.09 28.068C1141.09 28.824 1140.91 29.568 1140.54 30.3C1140.16 31.02 1139.59 31.788 1138.83 32.604L1135.42 36.24H1141.62V37.5H1133.53ZM1148.11 37.662C1146.66 37.662 1145.55 37.104 1144.8 35.988C1144.04 34.872 1143.66 33.258 1143.66 31.146C1143.66 29.022 1144.04 27.408 1144.8 26.304C1145.55 25.2 1146.66 24.648 1148.11 24.648C1149.57 24.648 1150.68 25.2 1151.42 26.304C1152.18 27.396 1152.55 29.004 1152.55 31.128C1152.55 33.252 1152.17 34.872 1151.4 35.988C1150.65 37.104 1149.55 37.662 1148.11 37.662ZM1148.11 36.384C1149.12 36.384 1149.86 35.958 1150.34 35.106C1150.83 34.254 1151.08 32.928 1151.08 31.128C1151.08 29.328 1150.84 28.014 1150.36 27.186C1149.88 26.346 1149.13 25.926 1148.11 25.926C1147.1 25.926 1146.35 26.346 1145.86 27.186C1145.38 28.026 1145.14 29.34 1145.14 31.128C1145.14 32.928 1145.38 34.254 1145.86 35.106C1146.35 35.958 1147.1 36.384 1148.11 36.384ZM1162.8 37.5V26.088H1158.2V24.81H1168.91V26.088H1164.3V37.5H1162.8ZM1168.95 37.5V28.752H1170.37V30.318C1170.84 29.262 1171.8 28.68 1173.25 28.572L1173.77 28.518L1173.88 29.778L1172.96 29.886C1172.13 29.958 1171.5 30.222 1171.07 30.678C1170.64 31.122 1170.42 31.734 1170.42 32.514V37.5H1168.95ZM1175.22 26.574V24.936H1177.02V26.574H1175.22ZM1175.4 37.5V28.752H1176.86V37.5H1175.4ZM1179.58 40.74V28.752H1181V30.318C1181.27 29.778 1181.66 29.358 1182.17 29.058C1182.7 28.746 1183.31 28.59 1184.01 28.59C1184.79 28.59 1185.47 28.776 1186.04 29.148C1186.63 29.508 1187.08 30.03 1187.39 30.714C1187.72 31.386 1187.88 32.19 1187.88 33.126C1187.88 34.05 1187.72 34.854 1187.39 35.538C1187.08 36.21 1186.63 36.732 1186.04 37.104C1185.47 37.476 1184.79 37.662 1184.01 37.662C1183.34 37.662 1182.74 37.512 1182.21 37.212C1181.68 36.912 1181.29 36.498 1181.04 35.97V40.74H1179.58ZM1183.7 36.492C1184.52 36.492 1185.17 36.204 1185.67 35.628C1186.16 35.04 1186.4 34.206 1186.4 33.126C1186.4 32.034 1186.16 31.2 1185.67 30.624C1185.17 30.048 1184.52 29.76 1183.7 29.76C1182.89 29.76 1182.23 30.048 1181.74 30.624C1181.25 31.2 1181 32.034 1181 33.126C1181 34.206 1181.25 35.04 1181.74 35.628C1182.23 36.204 1182.89 36.492 1183.7 36.492ZM1190.11 37.5V28.752H1191.53V30.228C1191.8 29.7 1192.16 29.298 1192.63 29.022C1193.1 28.734 1193.65 28.59 1194.27 28.59C1195.64 28.59 1196.51 29.184 1196.9 30.372C1197.16 29.82 1197.55 29.388 1198.07 29.076C1198.58 28.752 1199.18 28.59 1199.85 28.59C1201.79 28.59 1202.77 29.742 1202.77 32.046V37.5H1201.31V32.118C1201.31 31.314 1201.16 30.726 1200.88 30.354C1200.6 29.97 1200.14 29.778 1199.49 29.778C1198.78 29.778 1198.22 30.03 1197.8 30.534C1197.38 31.038 1197.17 31.71 1197.17 32.55V37.5H1195.71V32.118C1195.71 31.314 1195.57 30.726 1195.28 30.354C1195 29.97 1194.54 29.778 1193.89 29.778C1193.17 29.778 1192.6 30.03 1192.18 30.534C1191.77 31.038 1191.57 31.71 1191.57 32.55V37.5H1190.11ZM1208.25 37.662C1207.65 37.662 1207.11 37.548 1206.63 37.32C1206.16 37.08 1205.79 36.756 1205.51 36.348C1205.24 35.94 1205.1 35.484 1205.1 34.98C1205.1 34.344 1205.26 33.84 1205.58 33.468C1205.92 33.096 1206.47 32.832 1207.22 32.676C1207.99 32.508 1209.03 32.424 1210.35 32.424H1210.93V31.866C1210.93 31.122 1210.77 30.588 1210.46 30.264C1210.16 29.928 1209.68 29.76 1209 29.76C1208.48 29.76 1207.97 29.838 1207.47 29.994C1206.98 30.138 1206.48 30.378 1205.96 30.714L1205.46 29.652C1205.91 29.328 1206.47 29.07 1207.11 28.878C1207.77 28.686 1208.4 28.59 1209 28.59C1210.13 28.59 1210.97 28.866 1211.51 29.418C1212.06 29.97 1212.33 30.828 1212.33 31.992V37.5H1210.97V35.988C1210.74 36.504 1210.38 36.912 1209.9 37.212C1209.44 37.512 1208.88 37.662 1208.25 37.662ZM1208.48 36.564C1209.2 36.564 1209.79 36.318 1210.25 35.826C1210.7 35.322 1210.93 34.686 1210.93 33.918V33.378H1210.37C1209.4 33.378 1208.63 33.426 1208.07 33.522C1207.52 33.606 1207.13 33.762 1206.9 33.99C1206.68 34.206 1206.57 34.506 1206.57 34.89C1206.57 35.382 1206.74 35.784 1207.08 36.096C1207.43 36.408 1207.89 36.564 1208.48 36.564ZM1219.48 26.574V24.936H1221.28V26.574H1219.48ZM1219.66 37.5V28.752H1221.12V37.5H1219.66ZM1223.84 37.5V28.752H1225.27V30.246C1225.55 29.694 1225.96 29.28 1226.49 29.004C1227.02 28.728 1227.61 28.59 1228.27 28.59C1230.35 28.59 1231.39 29.742 1231.39 32.046V37.5H1229.93V32.136C1229.93 31.32 1229.77 30.726 1229.44 30.354C1229.13 29.97 1228.63 29.778 1227.93 29.778C1227.13 29.778 1226.48 30.03 1226 30.534C1225.54 31.026 1225.3 31.686 1225.3 32.514V37.5H1223.84ZM1237.78 37.662C1236.91 37.662 1236.15 37.476 1235.52 37.104C1234.88 36.72 1234.39 36.186 1234.04 35.502C1233.7 34.806 1233.54 33.996 1233.54 33.072C1233.54 31.68 1233.91 30.588 1234.67 29.796C1235.43 28.992 1236.46 28.59 1237.78 28.59C1238.32 28.59 1238.86 28.686 1239.39 28.878C1239.91 29.07 1240.35 29.34 1240.7 29.688L1240.2 30.75C1239.85 30.414 1239.46 30.168 1239.04 30.012C1238.64 29.856 1238.25 29.778 1237.87 29.778C1236.96 29.778 1236.26 30.066 1235.77 30.642C1235.28 31.206 1235.03 32.022 1235.03 33.09C1235.03 34.134 1235.28 34.962 1235.77 35.574C1236.26 36.174 1236.96 36.474 1237.87 36.474C1238.25 36.474 1238.64 36.396 1239.04 36.24C1239.46 36.084 1239.85 35.832 1240.2 35.484L1240.7 36.546C1240.35 36.894 1239.91 37.17 1239.37 37.374C1238.84 37.566 1238.31 37.662 1237.78 37.662ZM1245.87 37.662C1245.02 37.662 1244.28 37.476 1243.65 37.104C1243.03 36.732 1242.54 36.21 1242.2 35.538C1241.86 34.854 1241.69 34.05 1241.69 33.126C1241.69 32.202 1241.86 31.404 1242.2 30.732C1242.54 30.048 1243.03 29.52 1243.65 29.148C1244.28 28.776 1245.02 28.59 1245.87 28.59C1246.71 28.59 1247.44 28.776 1248.06 29.148C1248.7 29.52 1249.19 30.048 1249.52 30.732C1249.87 31.404 1250.04 32.202 1250.04 33.126C1250.04 34.05 1249.87 34.854 1249.52 35.538C1249.19 36.21 1248.7 36.732 1248.06 37.104C1247.44 37.476 1246.71 37.662 1245.87 37.662ZM1245.87 36.492C1246.68 36.492 1247.34 36.204 1247.83 35.628C1248.32 35.04 1248.57 34.206 1248.57 33.126C1248.57 32.034 1248.32 31.2 1247.83 30.624C1247.34 30.048 1246.68 29.76 1245.87 29.76C1245.04 29.76 1244.38 30.048 1243.89 30.624C1243.41 31.2 1243.17 32.034 1243.17 33.126C1243.17 34.206 1243.41 35.04 1243.89 35.628C1244.38 36.204 1245.04 36.492 1245.87 36.492ZM1252.23 37.5V28.752H1253.66V30.318C1254.12 29.262 1255.08 28.68 1256.54 28.572L1257.06 28.518L1257.17 29.778L1256.25 29.886C1255.42 29.958 1254.79 30.222 1254.36 30.678C1253.93 31.122 1253.71 31.734 1253.71 32.514V37.5H1252.23ZM1258.68 40.74V28.752H1260.11V30.318C1260.37 29.778 1260.76 29.358 1261.28 29.058C1261.8 28.746 1262.42 28.59 1263.11 28.59C1263.89 28.59 1264.57 28.776 1265.15 29.148C1265.73 29.508 1266.18 30.03 1266.5 30.714C1266.82 31.386 1266.98 32.19 1266.98 33.126C1266.98 34.05 1266.82 34.854 1266.5 35.538C1266.18 36.21 1265.73 36.732 1265.15 37.104C1264.57 37.476 1263.89 37.662 1263.11 37.662C1262.44 37.662 1261.84 37.512 1261.31 37.212C1260.78 36.912 1260.39 36.498 1260.14 35.97V40.74H1258.68ZM1262.81 36.492C1263.62 36.492 1264.28 36.204 1264.77 35.628C1265.26 35.04 1265.51 34.206 1265.51 33.126C1265.51 32.034 1265.26 31.2 1264.77 30.624C1264.28 30.048 1263.62 29.76 1262.81 29.76C1261.99 29.76 1261.34 30.048 1260.84 30.624C1260.35 31.2 1260.11 32.034 1260.11 33.126C1260.11 34.206 1260.35 35.04 1260.84 35.628C1261.34 36.204 1261.99 36.492 1262.81 36.492ZM1272.81 37.662C1271.96 37.662 1271.22 37.476 1270.6 37.104C1269.98 36.732 1269.49 36.21 1269.14 35.538C1268.81 34.854 1268.64 34.05 1268.64 33.126C1268.64 32.202 1268.81 31.404 1269.14 30.732C1269.49 30.048 1269.98 29.52 1270.6 29.148C1271.22 28.776 1271.96 28.59 1272.81 28.59C1273.65 28.59 1274.39 28.776 1275.01 29.148C1275.65 29.52 1276.13 30.048 1276.47 30.732C1276.82 31.404 1276.99 32.202 1276.99 33.126C1276.99 34.05 1276.82 34.854 1276.47 35.538C1276.13 36.21 1275.65 36.732 1275.01 37.104C1274.39 37.476 1273.65 37.662 1272.81 37.662ZM1272.81 36.492C1273.63 36.492 1274.28 36.204 1274.78 35.628C1275.27 35.04 1275.51 34.206 1275.51 33.126C1275.51 32.034 1275.27 31.2 1274.78 30.624C1274.28 30.048 1273.63 29.76 1272.81 29.76C1271.99 29.76 1271.33 30.048 1270.83 30.624C1270.35 31.2 1270.11 32.034 1270.11 33.126C1270.11 34.206 1270.35 35.04 1270.83 35.628C1271.33 36.204 1271.99 36.492 1272.81 36.492ZM1279.18 37.5V28.752H1280.6V30.318C1281.07 29.262 1282.03 28.68 1283.48 28.572L1284 28.518L1284.11 29.778L1283.19 29.886C1282.37 29.958 1281.74 30.222 1281.3 30.678C1280.87 31.122 1280.66 31.734 1280.66 32.514V37.5H1279.18ZM1288.3 37.662C1287.7 37.662 1287.16 37.548 1286.68 37.32C1286.21 37.08 1285.84 36.756 1285.56 36.348C1285.29 35.94 1285.15 35.484 1285.15 34.98C1285.15 34.344 1285.31 33.84 1285.63 33.468C1285.97 33.096 1286.52 32.832 1287.27 32.676C1288.04 32.508 1289.08 32.424 1290.4 32.424H1290.98V31.866C1290.98 31.122 1290.82 30.588 1290.51 30.264C1290.21 29.928 1289.73 29.76 1289.05 29.76C1288.53 29.76 1288.02 29.838 1287.52 29.994C1287.03 30.138 1286.53 30.378 1286.01 30.714L1285.51 29.652C1285.96 29.328 1286.52 29.07 1287.16 28.878C1287.82 28.686 1288.45 28.59 1289.05 28.59C1290.18 28.59 1291.02 28.866 1291.56 29.418C1292.11 29.97 1292.38 30.828 1292.38 31.992V37.5H1291.02V35.988C1290.79 36.504 1290.43 36.912 1289.95 37.212C1289.49 37.512 1288.93 37.662 1288.3 37.662ZM1288.53 36.564C1289.25 36.564 1289.84 36.318 1290.3 35.826C1290.75 35.322 1290.98 34.686 1290.98 33.918V33.378H1290.42C1289.45 33.378 1288.68 33.426 1288.12 33.522C1287.57 33.606 1287.18 33.762 1286.95 33.99C1286.73 34.206 1286.62 34.506 1286.62 34.89C1286.62 35.382 1286.79 35.784 1287.13 36.096C1287.48 36.408 1287.94 36.564 1288.53 36.564ZM1298.6 37.662C1297.57 37.662 1296.79 37.392 1296.28 36.852C1295.76 36.3 1295.5 35.508 1295.5 34.476V29.886H1293.79V28.752H1295.5V26.07H1296.96V28.752H1299.73V29.886H1296.96V34.332C1296.96 35.016 1297.1 35.538 1297.39 35.898C1297.68 36.246 1298.15 36.42 1298.8 36.42C1298.99 36.42 1299.18 36.396 1299.37 36.348C1299.56 36.3 1299.74 36.252 1299.89 36.204L1300.15 37.32C1299.99 37.404 1299.76 37.482 1299.46 37.554C1299.16 37.626 1298.87 37.662 1298.6 37.662ZM1305.24 37.662C1303.86 37.662 1302.76 37.26 1301.96 36.456C1301.16 35.64 1300.75 34.536 1300.75 33.144C1300.75 32.244 1300.93 31.452 1301.29 30.768C1301.65 30.072 1302.15 29.538 1302.77 29.166C1303.41 28.782 1304.14 28.59 1304.97 28.59C1306.15 28.59 1307.08 28.974 1307.76 29.742C1308.43 30.498 1308.76 31.542 1308.76 32.874V33.432H1302.18C1302.22 34.428 1302.51 35.19 1303.04 35.718C1303.57 36.234 1304.3 36.492 1305.24 36.492C1305.76 36.492 1306.27 36.414 1306.75 36.258C1307.23 36.09 1307.68 35.82 1308.12 35.448L1308.62 36.474C1308.22 36.846 1307.72 37.14 1307.11 37.356C1306.5 37.56 1305.87 37.662 1305.24 37.662ZM1305 29.67C1304.17 29.67 1303.52 29.928 1303.04 30.444C1302.56 30.96 1302.28 31.638 1302.19 32.478H1307.5C1307.47 31.59 1307.23 30.9 1306.8 30.408C1306.38 29.916 1305.78 29.67 1305 29.67ZM1314.2 37.662C1313.42 37.662 1312.74 37.476 1312.15 37.104C1311.58 36.732 1311.13 36.21 1310.8 35.538C1310.49 34.854 1310.33 34.05 1310.33 33.126C1310.33 32.19 1310.49 31.386 1310.8 30.714C1311.13 30.03 1311.58 29.508 1312.15 29.148C1312.74 28.776 1313.42 28.59 1314.2 28.59C1314.89 28.59 1315.49 28.74 1316 29.04C1316.53 29.34 1316.92 29.754 1317.17 30.282V24.81H1318.63V37.5H1317.21V35.898C1316.96 36.45 1316.57 36.882 1316.04 37.194C1315.51 37.506 1314.9 37.662 1314.2 37.662ZM1314.51 36.492C1315.33 36.492 1315.98 36.204 1316.47 35.628C1316.96 35.04 1317.21 34.206 1317.21 33.126C1317.21 32.034 1316.96 31.2 1316.47 30.624C1315.98 30.048 1315.33 29.76 1314.51 29.76C1313.68 29.76 1313.02 30.048 1312.53 30.624C1312.05 31.2 1311.81 32.034 1311.81 33.126C1311.81 34.206 1312.05 35.04 1312.53 35.628C1313.02 36.204 1313.68 36.492 1314.51 36.492Z" fill="#7C8DB0"/>
</svg>
