<svg width="2426" height="2841" viewBox="0 0 2426 2841" fill="none" xmlns="http://www.w3.org/2000/svg">
<path d="M1454.87 1072.62C1456.25 1063.27 1464.31 1056.5 1473.77 1056.5H1522H1569.65C1579.36 1056.5 1587.58 1063.64 1588.82 1073.25C1591.77 1096.12 1596.5 1136.18 1596.5 1158.5V1158.5C1596.5 1190.98 1596.5 1243.63 1568.53 1320.83C1560.89 1341.9 1549.16 1365.63 1539.32 1384.1C1534.41 1393.33 1529.97 1401.24 1526.76 1406.84C1525.15 1409.65 1523.86 1411.87 1522.96 1413.4C1522.57 1414.06 1522.26 1414.59 1522.03 1414.98C1521.82 1414.58 1521.54 1414.05 1521.2 1413.39C1520.39 1411.84 1519.23 1409.59 1517.77 1406.75C1514.87 1401.08 1510.82 1393.09 1506.24 1383.81C1497.09 1365.24 1485.85 1341.5 1477.46 1320.81C1447.5 1246.9 1447.5 1204.48 1447.5 1158.51V1158.5C1447.5 1127.97 1451.91 1092.79 1454.87 1072.62Z" fill="#EAEBFF" stroke="#BFC8D9"/>
<path d="M971.126 1072.62C969.754 1063.27 961.69 1056.5 952.229 1056.5H904H856.346C846.641 1056.5 838.425 1063.64 837.181 1073.25C834.227 1096.12 829.5 1136.18 829.5 1158.5V1158.5C829.5 1190.98 829.5 1243.63 857.47 1320.83C865.106 1341.9 876.843 1365.63 886.677 1384.1C891.593 1393.33 896.032 1401.24 899.241 1406.84C900.846 1409.65 902.143 1411.87 903.039 1413.4C903.428 1414.06 903.742 1414.59 903.972 1414.98C904.177 1414.58 904.456 1414.05 904.801 1413.39C905.605 1411.84 906.772 1409.59 908.226 1406.75C911.132 1401.08 915.182 1393.09 919.756 1383.81C928.906 1365.24 940.15 1341.5 948.537 1320.81C978.5 1246.9 978.5 1204.48 978.5 1158.51V1158.5C978.5 1127.97 974.088 1092.79 971.126 1072.62Z" fill="#EAEBFF" stroke="#BFC8D9"/>
<path d="M979.613 1223.83L979.638 1223.82L979.66 1223.8L1039.21 1182.25C1047.18 1176.69 1054.3 1170.01 1060.35 1162.4L1084.1 1132.54C1085.58 1130.69 1086.38 1128.38 1086.38 1126.01V1060V508.025C1086.38 496.724 1087.34 485.457 1089.3 474.329C1096.03 436.253 1113.17 341.485 1128.49 276.114C1138.74 232.36 1151.61 178.634 1166.1 135.848C1173.35 114.452 1180.99 95.8196 1188.9 82.545C1192.85 75.9071 1196.86 70.6323 1200.9 67.0223C1204.94 63.4121 1208.98 61.5 1213 61.5C1217.02 61.5 1221.08 63.4271 1225.16 67.0637C1229.24 70.6996 1233.3 76.0101 1237.31 82.6873C1245.34 96.0403 1253.12 114.766 1260.46 136.224C1275.14 179.133 1288.01 232.86 1297.51 276.107C1311.81 341.194 1329.31 434.914 1336.41 473.488C1338.56 485.187 1339.62 497.029 1339.62 508.926V1060V1126.01C1339.62 1128.38 1340.42 1130.69 1341.9 1132.54L1365.65 1162.4C1371.7 1170.01 1378.82 1176.69 1386.79 1182.25L1446.34 1223.8L1446.36 1223.82L1446.39 1223.83L2228.93 1650.42C2228.94 1650.42 2228.94 1650.43 2228.95 1650.43C2246.58 1661.66 2279.5 1700.11 2273.86 1765.68C2273.61 1768.59 2270.88 1770.48 2268.15 1769.57C2208.1 1749.65 1778.96 1617.53 1550.47 1547.38C1540.91 1544.44 1531.13 1543 1521.13 1543H1343H1342.5V1543.5V2047.5C1342.5 2138.57 1313.12 2274.45 1308.21 2296.56C1307.74 2298.66 1307.24 2300.68 1306.69 2302.77L1290.72 2363.37L1290.62 2363.72L1290.92 2363.92L1660.4 2609.86C1661.74 2611.89 1663.47 2616.62 1664.18 2624.26C1664.88 2631.88 1664.57 2642.37 1661.88 2655.88L1244.16 2542.02L1243.67 2541.89L1243.54 2542.37L1240.02 2555.74L1240.02 2555.75L1240.02 2555.75L1240.01 2555.77L1239.99 2555.84C1239.97 2555.91 1239.94 2556.01 1239.91 2556.14C1239.83 2556.4 1239.72 2556.79 1239.57 2557.28C1239.27 2558.26 1238.82 2559.67 1238.22 2561.35C1237.04 2564.73 1235.27 2569.22 1232.95 2573.71C1230.64 2578.2 1227.78 2582.67 1224.42 2586C1221.07 2589.34 1217.25 2591.5 1213 2591.5C1208.75 2591.5 1204.93 2589.34 1201.58 2586C1198.22 2582.67 1195.36 2578.2 1193.05 2573.71C1190.73 2569.22 1188.96 2564.73 1187.78 2561.35C1187.18 2559.67 1186.73 2558.26 1186.43 2557.28C1186.28 2556.79 1186.17 2556.4 1186.09 2556.14C1186.06 2556.01 1186.03 2555.91 1186.01 2555.84L1185.99 2555.77L1185.98 2555.75L1185.98 2555.75L1185.98 2555.75L1182.46 2542.37L1182.33 2541.89L1181.84 2542.02L762.645 2655.88C759.951 2642.37 759.639 2631.88 760.346 2624.26C761.054 2616.62 762.78 2611.89 764.12 2609.86L1135.08 2363.92L1135.38 2363.72L1135.28 2363.37L1119.31 2302.77C1118.76 2300.68 1118.26 2298.66 1117.79 2296.56C1112.88 2274.45 1083.5 2138.57 1083.5 2047.5V1543.5V1543H1083H904.87C894.874 1543 885.088 1544.44 875.531 1547.38C647.042 1617.53 217.903 1749.65 157.849 1769.57C155.116 1770.48 152.392 1768.59 152.142 1765.68C146.5 1700.11 179.424 1661.66 197.053 1650.43C197.057 1650.43 197.062 1650.42 197.066 1650.42L979.613 1223.83Z" fill="url(#paint0_linear_879_1352)" stroke="#BCBAF7"/>
<path opacity="0.4" d="M1138.39 315.743L1150.67 288.724C1153.92 281.584 1161.04 277 1168.88 277H1205.5C1207.71 277 1209.5 278.791 1209.5 281V311.513C1209.5 313.722 1207.71 315.507 1205.5 315.564C1193.17 315.883 1185.74 317.646 1172.75 319C1165.57 319.748 1161.68 320.224 1154.38 321C1150.56 321.405 1145.58 321.378 1141.77 321.264C1138.98 321.181 1137.23 318.286 1138.39 315.743Z" fill="white" fill-opacity="0.6" stroke="#7C8DB0" stroke-opacity="0.2"/>
<path opacity="0.4" d="M1288.11 315.743L1275.83 288.724C1272.58 281.584 1265.46 277 1257.62 277H1221C1218.79 277 1217 278.791 1217 281V311.513C1217 313.722 1218.79 315.507 1221 315.564C1233.33 315.883 1240.76 317.646 1253.75 319C1260.93 319.748 1264.82 320.224 1272.12 321C1275.94 321.405 1280.92 321.378 1284.73 321.264C1287.52 321.181 1289.27 318.286 1288.11 315.743Z" fill="white" fill-opacity="0.6" stroke="#7C8DB0" stroke-opacity="0.2"/>
<path d="M1104 494C1104 494 1104 491.5 1128.41 364C1134.29 333.278 1181.58 334 1213 334C1244.42 334 1291.71 333.278 1297.59 364C1322 491.5 1322 494 1322 494V2146C1322 2146 1322 2146 1307.59 2206.25C1300.31 2236.71 1213 2236.5 1213 2236.5C1213 2236.5 1125.69 2236.71 1118.41 2206.25C1104 2146 1104 2146 1104 2146V494Z" fill="white" fill-opacity="0.6" stroke="#7C8DB0" stroke-opacity="0.2"/>
<defs>
<linearGradient id="paint0_linear_879_1352" x1="151" y1="1188" x2="2275" y2="1188" gradientUnits="userSpaceOnUse">
<stop stop-color="#99BBFF"/>
<stop offset="0.489583" stop-color="#CCCCFF"/>
<stop offset="1" stop-color="#99BBFF"/>
</linearGradient>
</defs>
</svg>
